<?xml version="1.0" encoding="utf-8"?>
<!-- Generator: Adobe Illustrator 16.0.4, SVG Export Plug-In . SVG Version: 6.00 Build 0)  -->
<!DOCTYPE svg PUBLIC "-//W3C//DTD SVG 1.1 Tiny//EN" "http://www.w3.org/Graphics/SVG/1.1/DTD/svg11-tiny.dtd">
<svg version="1.1" baseProfile="tiny" id="Layer_1" xmlns="http://www.w3.org/2000/svg" xmlns:xlink="http://www.w3.org/1999/xlink"
	 x="0px" y="0px" width="99.399px" height="42.913px" viewBox="0 0 99.399 42.913" xml:space="preserve">
<g>
	<g>
		<path fill="#18355E" d="M84.021,16.905l-1.076,7.327h2.195l-1.078-7.327H84.021z M72.384,16.41h-1.072v4.903h1.07
			c0.729,0,1.119-0.332,1.119-1.364v-2.175C73.503,16.74,73.108,16.41,72.384,16.41z M33.833,16.41h-1.077v4.903h1.077
			c0.729,0,1.118-0.332,1.118-1.364v-2.175C34.952,16.74,34.558,16.41,33.833,16.41z M0,10.75v21.558h99.399V10.75H0z M9.814,16.41
			h-2.38v12.423H5.157V16.41H2.774v-2.07h7.04V16.41z M17.994,28.832h-2.319v-6.211h-2.588v6.211h-2.276V14.339h2.273v6.213h2.588
			v-6.213h2.319L17.994,28.832L17.994,28.832z M25.861,16.41h-3.936v4.033h3.128v2.072h-3.128v4.244h3.936v2.069h-6.212v-14.49
			h6.212V16.41z M37.229,19.806c0,2.318-1.118,3.583-3.396,3.583h-1.077v5.444H30.48V14.339h3.354c2.277,0,3.396,1.264,3.396,3.582
			L37.229,19.806L37.229,19.806z M45.469,28.832H43.15v-6.211h-2.588v6.211h-2.277V14.339h2.277v6.213h2.588v-6.213h2.317
			L45.469,28.832L45.469,28.832z M49.401,28.832h-2.275V14.339h2.275V28.832z M57.083,28.832h-6.021V14.339h2.271v12.424h3.748
			L57.083,28.832L57.083,28.832z M64.104,28.832h-6.023V14.339h2.273v12.424h3.748v2.069H64.104z M67.374,28.832h-2.273V14.339
			h2.273V28.832L67.374,28.832z M75.782,19.806c0,2.318-1.119,3.583-3.396,3.583h-1.074v5.444h-2.277V14.339h3.354
			c2.273,0,3.396,1.264,3.396,3.582L75.782,19.806L75.782,19.806z M79.116,28.832h-2.277V14.339h2.277V28.832z M85.843,28.832
			l-0.393-2.629h-2.795l-0.396,2.629h-2.092l2.32-14.494h3.334l2.318,14.494H85.843z M96.403,28.832h-2.34l-2.797-10.497h-0.041
			v10.498h-2.051V14.339h2.855l2.299,8.676h0.041v-8.676h2.029L96.403,28.832L96.403,28.832z"/>
	</g>
	<g>
		<path fill="#959494" d="M20.342,5.361v1.116c0,1.343-0.673,2.109-1.968,2.109s-1.967-0.768-1.967-2.109V2.111
			C16.407,0.769,17.079,0,18.374,0s1.968,0.769,1.968,2.111v0.814h-1.248V2.027c0-0.601-0.265-0.828-0.685-0.828
			c-0.419,0-0.684,0.228-0.684,0.828v4.533c0,0.6,0.264,0.815,0.684,0.815s0.685-0.216,0.685-0.815V5.361H20.342z"/>
		<path fill="#959494" d="M21.039,2.111C21.039,0.769,21.747,0,23.041,0c1.295,0,2.003,0.769,2.003,2.111v4.366
			c0,1.343-0.708,2.109-2.003,2.109s-2.003-0.768-2.003-2.109L21.039,2.111L21.039,2.111z M22.358,6.561
			c0,0.6,0.264,0.828,0.684,0.828s0.685-0.229,0.685-0.828V2.027c0-0.601-0.265-0.828-0.685-0.828c-0.419,0-0.684,0.228-0.684,0.828
			V6.561z"/>
		<path fill="#959494" d="M25.839,3.694h2.398v1.199h-2.398V3.694z"/>
		<path fill="#959494" d="M33.048,2.171v1.092c0,1.343-0.646,2.074-1.967,2.074h-0.624v3.154h-1.318V0.097h1.942
			C32.401,0.097,33.048,0.828,33.048,2.171z M30.457,1.295v2.844h0.624c0.419,0,0.647-0.192,0.647-0.792v-1.26
			c0-0.6-0.229-0.792-0.647-0.792H30.457z"/>
		<path fill="#959494" d="M36.42,8.491c-0.071-0.216-0.118-0.348-0.118-1.031V6.142c0-0.78-0.265-1.067-0.863-1.067h-0.457v3.418
			h-1.318V0.097h1.99c1.367,0,1.955,0.636,1.955,1.931v0.66c0,0.862-0.275,1.415-0.863,1.69v0.024
			c0.66,0.276,0.875,0.898,0.875,1.774v1.296c0,0.407,0.014,0.708,0.146,1.02L36.42,8.491L36.42,8.491z M34.981,1.295v2.579h0.517
			c0.491,0,0.792-0.216,0.792-0.887V2.159c0-0.6-0.205-0.864-0.672-0.864H34.981z"/>
		<path fill="#959494" d="M39.806,3.634h1.812v1.199h-1.812v2.459h2.278v1.199h-3.598V0.097h3.598v1.198h-2.278V3.634z"/>
		<path fill="#959494" d="M44.679,0c1.282,0,1.941,0.769,1.941,2.111v0.264h-1.247V2.027c0-0.601-0.239-0.828-0.66-0.828
			c-0.42,0-0.659,0.228-0.659,0.828c0,0.612,0.265,1.066,1.128,1.823c1.104,0.972,1.45,1.667,1.45,2.627
			c0,1.343-0.671,2.109-1.967,2.109s-1.967-0.768-1.967-2.109V5.96h1.247v0.601c0,0.6,0.264,0.815,0.684,0.815
			c0.421,0,0.685-0.216,0.685-0.815c0-0.611-0.264-1.067-1.127-1.823c-1.104-0.972-1.451-1.667-1.451-2.626
			C42.735,0.769,43.396,0,44.679,0z"/>
		<path fill="#959494" d="M47.392,0.097h1.317v8.396h-1.317V0.097z"/>
		<path fill="#959494" d="M49.67,0.097h2.086c1.32,0,1.969,0.731,1.969,2.074v4.246c0,1.343-0.647,2.075-1.969,2.075H49.67V0.097z
			 M50.989,1.295v5.997h0.744c0.42,0,0.672-0.216,0.672-0.814V2.111c0-0.601-0.252-0.816-0.672-0.816H50.989z"/>
		<path fill="#959494" d="M55.886,3.634h1.811v1.199h-1.811v2.459h2.279v1.199h-3.599V0.097h3.599v1.198h-2.279V3.634z"/>
		<path fill="#959494" d="M60.183,2.411h-0.023v6.081h-1.188V0.097h1.655l1.33,5.024h0.024V0.097h1.177v8.396h-1.355L60.183,2.411z"
			/>
		<path fill="#959494" d="M63.722,0.097H67.8v1.198h-1.379v7.196h-1.318V1.295h-1.381V0.097z"/>
		<path fill="#959494" d="M68.378,0.097h1.316v8.396h-1.316V0.097z"/>
		<path fill="#959494" d="M74.927,8.491h-1.33l-0.229-1.523h-1.619l-0.23,1.523h-1.211l1.344-8.396h1.934L74.927,8.491z
			 M71.917,5.829h1.27l-0.623-4.246H72.54L71.917,5.829z"/>
		<path fill="#959494" d="M75.542,0.097h1.316v7.195h2.174v1.199h-3.49V0.097z"/>
	</g>
	<g>
		<path fill="#959494" d="M29.853,37.96h1.811v1.199h-1.811v2.459h2.279v1.198h-3.6v-8.396h3.6v1.199h-2.279V37.96L29.853,37.96z"/>
		<path fill="#959494" d="M32.948,34.422h1.32v7.196h2.17v1.198h-3.49V34.422z"/>
		<path fill="#959494" d="M38.335,37.96h1.812v1.199h-1.812v2.459h2.279v1.198h-3.6v-8.396h3.6v1.199h-2.279V37.96z"/>
		<path fill="#959494" d="M45.259,39.688v1.115c0,1.343-0.674,2.11-1.969,2.11s-1.967-0.769-1.967-2.11v-4.366
			c0-1.343,0.672-2.109,1.967-2.109s1.969,0.768,1.969,2.109v0.815h-1.248v-0.899c0-0.6-0.264-0.827-0.684-0.827
			s-0.684,0.228-0.684,0.827v4.534c0,0.601,0.264,0.815,0.684,0.815s0.686-0.216,0.686-0.815v-1.199H45.259z"/>
		<path fill="#959494" d="M45.681,34.422h4.078v1.199H48.38v7.195h-1.32v-7.195h-1.379V34.422L45.681,34.422z"/>
		<path fill="#959494" d="M50.335,34.422h1.32v8.396h-1.32V34.422z"/>
		<path fill="#959494" d="M52.509,36.437c0-1.343,0.707-2.109,2.002-2.109s2.004,0.768,2.004,2.109v4.366
			c0,1.343-0.709,2.11-2.004,2.11s-2.002-0.769-2.002-2.11V36.437z M53.827,40.887c0,0.601,0.264,0.827,0.684,0.827
			s0.684-0.228,0.684-0.827v-4.534c0-0.6-0.264-0.827-0.684-0.827s-0.684,0.229-0.684,0.827V40.887z"/>
		<path fill="#959494" d="M58.567,36.737h-0.023v6.08h-1.188v-8.396h1.654l1.332,5.025h0.023v-5.025h1.174v8.396h-1.354
			L58.567,36.737z"/>
		<path fill="#959494" d="M64.267,34.327c1.283,0,1.941,0.768,1.941,2.109v0.266h-1.246v-0.35c0-0.6-0.238-0.827-0.658-0.827
			s-0.66,0.229-0.66,0.827c0,0.612,0.264,1.067,1.127,1.823c1.104,0.972,1.451,1.667,1.451,2.627c0,1.343-0.672,2.11-1.967,2.11
			c-1.297,0-1.969-0.769-1.969-2.11v-0.516h1.248v0.6c0,0.601,0.266,0.815,0.686,0.815s0.684-0.217,0.684-0.815
			c0-0.612-0.264-1.066-1.129-1.823c-1.104-0.972-1.451-1.667-1.451-2.627C62.323,35.094,62.983,34.327,64.267,34.327z"/>
	</g>
</g>
<g>
	<path fill="#959494" d="M144.329,17.738c-0.42,0-0.686,0.228-0.686,0.827v0.9h-1.246v-0.816c0-1.343,0.672-2.11,1.967-2.11
		s1.967,0.768,1.967,2.11c0,1.116-0.408,2.016-1.631,3.322c-0.779,0.84-0.996,1.235-0.996,1.68c0,0.06,0,0.119,0.012,0.18h2.496
		v1.199h-3.814v-1.031c0-0.936,0.336-1.644,1.318-2.675c1.008-1.067,1.297-1.727,1.297-2.626
		C145.013,17.942,144.747,17.738,144.329,17.738z"/>
	<path fill="#959494" d="M147.042,18.649c0-1.343,0.707-2.11,2.002-2.11s2.004,0.768,2.004,2.11v4.366
		c0,1.343-0.709,2.11-2.004,2.11s-2.002-0.768-2.002-2.11V18.649z M148.36,23.1c0,0.6,0.264,0.827,0.684,0.827
		s0.684-0.228,0.684-0.827v-4.534c0-0.6-0.264-0.827-0.684-0.827s-0.684,0.228-0.684,0.827V23.1z"/>
	<path fill="#959494" d="M152.716,17.69c1.02,0,1.248-0.492,1.451-1.056h0.889v8.396h-1.32v-6.404h-1.02V17.69z"/>
	<path fill="#959494" d="M157.841,22.319v0.78c0,0.6,0.264,0.815,0.684,0.815s0.684-0.216,0.684-0.815v-1.848
		c0-0.6-0.264-0.827-0.684-0.827s-0.684,0.228-0.684,0.827v0.252h-1.248l0.24-4.869h3.479v1.199h-2.303l-0.109,2.003h0.025
		c0.24-0.396,0.611-0.611,1.139-0.611c0.973,0,1.463,0.684,1.463,1.919v1.871c0,1.343-0.672,2.11-1.967,2.11
		s-1.967-0.768-1.967-2.11v-0.696H157.841z"/>
</g>
</svg>
