<?xml version="1.0" encoding="utf-8"?>
<!-- Generator: Adobe Illustrator 16.0.4, SVG Export Plug-In . SVG Version: 6.00 Build 0)  -->
<!DOCTYPE svg PUBLIC "-//W3C//DTD SVG 1.1//EN" "http://www.w3.org/Graphics/SVG/1.1/DTD/svg11.dtd">
<svg version="1.1" id="Layer_1" xmlns="http://www.w3.org/2000/svg" xmlns:xlink="http://www.w3.org/1999/xlink" x="0px" y="0px"
	 width="229.266px" height="21.558px" viewBox="-66.681 10.587 229.266 21.558"
	 enable-background="new -66.681 10.587 229.266 21.558" xml:space="preserve">
<g>
	<path fill="#18345E" d="M82.272,16.742l-1.076,7.327h2.195l-1.078-7.327H82.272z M70.635,16.247h-1.072v4.903h1.07
		c0.729,0,1.119-0.332,1.119-1.364v-2.175C71.754,16.577,71.36,16.247,70.635,16.247z M32.085,16.247h-1.077v4.903h1.077
		c0.729,0,1.118-0.332,1.118-1.364v-2.175C33.204,16.577,32.81,16.247,32.085,16.247z M-1.748,10.587v21.558h99.399V10.587H-1.748z
		 M8.065,16.247h-2.38V28.67H3.409V16.247H1.025v-2.07h7.04V16.247z M16.246,28.669h-2.319v-6.211h-2.588v6.211H9.062V14.176h2.273
		v6.213h2.588v-6.213h2.319L16.246,28.669L16.246,28.669z M24.112,16.247h-3.936v4.033h3.128v2.072h-3.128v4.244h3.936v2.069H17.9
		v-14.49h6.212V16.247z M35.48,19.642c0,2.318-1.118,3.583-3.396,3.583h-1.077v5.444h-2.276V14.176h3.354
		c2.276,0,3.396,1.264,3.396,3.582L35.48,19.642L35.48,19.642z M43.721,28.669h-2.319v-6.211h-2.588v6.211h-2.276V14.176h2.276
		v6.213h2.588v-6.213h2.317L43.721,28.669L43.721,28.669z M47.653,28.669h-2.275V14.176h2.275V28.669z M55.334,28.669h-6.022V14.176
		h2.272v12.424h3.748L55.334,28.669L55.334,28.669z M62.356,28.669h-6.023V14.176h2.273v12.424h3.748v2.069H62.356z M65.625,28.669
		h-2.273V14.176h2.273V28.669L65.625,28.669z M74.034,19.642c0,2.318-1.119,3.583-3.396,3.583h-1.074v5.444h-2.277V14.176h3.354
		c2.273,0,3.396,1.264,3.396,3.582L74.034,19.642L74.034,19.642z M77.368,28.669H75.09V14.176h2.277V28.669z M84.094,28.669
		l-0.393-2.629h-2.795l-0.396,2.629h-2.092l2.32-14.494h3.334l2.318,14.494H84.094z M94.655,28.669h-2.34l-2.797-10.497h-0.041
		V28.67h-2.051V14.176h2.855l2.299,8.676h0.041v-8.676h2.029L94.655,28.669L94.655,28.669z"/>
</g>
<g>
	<path fill="#949494" d="M-62.69,22.787v1.116c0,1.343-0.672,2.109-1.967,2.109s-1.967-0.768-1.967-2.109v-4.366
		c0-1.343,0.672-2.111,1.967-2.111s1.967,0.769,1.967,2.111v0.814h-1.248v-0.898c0-0.601-0.264-0.828-0.684-0.828
		c-0.419,0-0.685,0.228-0.685,0.828v4.533c0,0.6,0.265,0.815,0.685,0.815s0.684-0.216,0.684-0.815v-1.199H-62.69z"/>
	<path fill="#949494" d="M-61.992,19.537c0-1.343,0.708-2.111,2.002-2.111c1.295,0,2.003,0.769,2.003,2.111v4.366
		c0,1.343-0.708,2.109-2.003,2.109s-2.003-0.768-2.003-2.109L-61.992,19.537L-61.992,19.537z M-60.673,23.986
		c0,0.6,0.265,0.828,0.685,0.828s0.684-0.229,0.684-0.828v-4.533c0-0.601-0.264-0.828-0.684-0.828c-0.419,0-0.685,0.228-0.685,0.828
		V23.986z"/>
	<path fill="#949494" d="M-57.192,21.12h2.397v1.199h-2.397V21.12z"/>
	<path fill="#949494" d="M-49.983,19.596v1.092c0,1.343-0.647,2.074-1.967,2.074h-0.624v3.154h-1.319v-8.395h1.943
		C-50.63,17.522-49.983,18.254-49.983,19.596z M-52.574,18.72v2.844h0.624c0.419,0,0.646-0.192,0.646-0.792v-1.26
		c0-0.6-0.229-0.792-0.646-0.792H-52.574z"/>
	<path fill="#949494" d="M-46.611,25.917c-0.072-0.216-0.119-0.348-0.119-1.031v-1.318c0-0.78-0.264-1.067-0.863-1.067h-0.457v3.418
		h-1.317v-8.396h1.989c1.367,0,1.955,0.636,1.955,1.931v0.66c0,0.862-0.274,1.415-0.862,1.69v0.024
		c0.66,0.276,0.875,0.898,0.875,1.774v1.296c0,0.407,0.013,0.708,0.145,1.02L-46.611,25.917L-46.611,25.917z M-48.05,18.72V21.3
		h0.518c0.491,0,0.792-0.216,0.792-0.887v-0.828c0-0.6-0.205-0.864-0.672-0.864H-48.05z"/>
	<path fill="#949494" d="M-43.226,21.059h1.812v1.199h-1.812v2.459h2.279v1.199h-3.599v-8.395h3.599v1.198h-2.279V21.059z"/>
	<path fill="#949494" d="M-38.353,17.426c1.283,0,1.942,0.769,1.942,2.111v0.264h-1.247v-0.348c0-0.601-0.24-0.828-0.66-0.828
		s-0.66,0.228-0.66,0.828c0,0.612,0.265,1.066,1.128,1.823c1.104,0.972,1.451,1.667,1.451,2.627c0,1.343-0.671,2.109-1.967,2.109
		s-1.967-0.768-1.967-2.109v-0.518h1.246v0.601c0,0.6,0.265,0.815,0.685,0.815s0.684-0.216,0.684-0.815
		c0-0.611-0.264-1.067-1.127-1.823c-1.104-0.972-1.451-1.667-1.451-2.626C-40.296,18.194-39.636,17.426-38.353,17.426z"/>
	<path fill="#949494" d="M-35.64,17.522h1.318v8.396h-1.318V17.522z"/>
	<path fill="#949494" d="M-33.361,17.522h2.086c1.32,0,1.968,0.731,1.968,2.074v4.246c0,1.343-0.646,2.075-1.968,2.075h-2.086
		V17.522z M-32.042,18.72v5.997h0.743c0.42,0,0.673-0.216,0.673-0.814v-4.366c0-0.601-0.253-0.816-0.673-0.816H-32.042z"/>
	<path fill="#949494" d="M-27.146,21.059h1.812v1.199h-1.812v2.459h2.279v1.199h-3.599v-8.395h3.599v1.198h-2.279V21.059z"/>
	<path fill="#949494" d="M-22.849,19.837h-0.023v6.081h-1.188v-8.396h1.655l1.331,5.024h0.023v-5.024h1.177v8.396h-1.355
		L-22.849,19.837z"/>
	<path fill="#949494" d="M-19.31,17.522h4.079v1.198h-1.38v7.196h-1.318V18.72h-1.381V17.522z"/>
	<path fill="#949494" d="M-14.654,17.522h1.317v8.396h-1.317V17.522z"/>
	<path fill="#949494" d="M-8.104,25.917h-1.33l-0.229-1.523h-1.62l-0.229,1.523h-1.211l1.344-8.396h1.933L-8.104,25.917z
		 M-11.115,23.255h1.271l-0.623-4.246h-0.024L-11.115,23.255z"/>
	<path fill="#949494" d="M-7.49,17.522h1.317v7.195H-4v1.199h-3.49V17.522z"/>
</g>
<g>
	<path fill="#949494" d="M100.708,20.022h1.812v1.199h-1.812v2.459h2.279v1.198h-3.6v-8.396h3.6v1.199h-2.279V20.022L100.708,20.022
		z"/>
	<path fill="#949494" d="M103.805,16.484h1.319v7.196h2.17v1.198h-3.489V16.484z"/>
	<path fill="#949494" d="M109.191,20.022h1.812v1.199h-1.812v2.459h2.279v1.198h-3.6v-8.396h3.6v1.199h-2.279V20.022z"/>
	<path fill="#949494" d="M116.115,21.75v1.115c0,1.343-0.673,2.11-1.968,2.11c-1.296,0-1.967-0.769-1.967-2.11v-4.366
		c0-1.343,0.671-2.109,1.967-2.109c1.295,0,1.968,0.768,1.968,2.109v0.815h-1.248v-0.899c0-0.6-0.264-0.827-0.684-0.827
		s-0.684,0.228-0.684,0.827v4.534c0,0.601,0.265,0.815,0.685,0.815s0.685-0.216,0.685-0.815V21.75H116.115z"/>
	<path fill="#949494" d="M116.537,16.484h4.078v1.199h-1.379v7.195h-1.32v-7.195h-1.379V16.484L116.537,16.484z"/>
	<path fill="#949494" d="M121.192,16.484h1.319v8.396h-1.319V16.484z"/>
	<path fill="#949494" d="M123.365,18.499c0-1.343,0.707-2.109,2.002-2.109s2.004,0.768,2.004,2.109v4.366
		c0,1.343-0.709,2.11-2.004,2.11s-2.002-0.769-2.002-2.11V18.499z M124.683,22.949c0,0.601,0.264,0.827,0.684,0.827
		s0.685-0.228,0.685-0.827v-4.534c0-0.6-0.265-0.827-0.685-0.827s-0.684,0.229-0.684,0.827V22.949z"/>
	<path fill="#949494" d="M129.423,18.8H129.4v6.08h-1.188v-8.396h1.654l1.332,5.025h0.023v-5.025h1.175v8.396h-1.354L129.423,18.8z"
		/>
	<path fill="#949494" d="M135.123,16.389c1.283,0,1.942,0.768,1.942,2.109v0.266h-1.247v-0.35c0-0.6-0.238-0.827-0.658-0.827
		s-0.66,0.229-0.66,0.827c0,0.612,0.264,1.067,1.127,1.823c1.104,0.972,1.451,1.667,1.451,2.627c0,1.343-0.672,2.11-1.967,2.11
		c-1.296,0-1.968-0.769-1.968-2.11v-0.516h1.248v0.6c0,0.601,0.265,0.815,0.685,0.815s0.684-0.217,0.684-0.815
		c0-0.612-0.264-1.066-1.129-1.823c-1.104-0.972-1.45-1.667-1.45-2.627C133.18,17.156,133.84,16.389,135.123,16.389z"/>
</g>
<g>
	<path fill="#949494" d="M141.911,17.623c-0.42,0-0.685,0.228-0.685,0.827v0.9h-1.247v-0.816c0-1.343,0.672-2.11,1.967-2.11
		c1.296,0,1.968,0.768,1.968,2.11c0,1.116-0.408,2.016-1.632,3.322c-0.779,0.84-0.995,1.235-0.995,1.68c0,0.06,0,0.119,0.012,0.18
		h2.495v1.199h-3.814v-1.031c0-0.936,0.336-1.644,1.319-2.675c1.008-1.067,1.296-1.727,1.296-2.626
		C142.594,17.827,142.33,17.623,141.911,17.623z"/>
	<path fill="#949494" d="M144.624,18.534c0-1.343,0.707-2.11,2.003-2.11c1.295,0,2.003,0.768,2.003,2.11V22.9
		c0,1.343-0.708,2.11-2.003,2.11c-1.296,0-2.003-0.768-2.003-2.11V18.534z M145.943,22.984c0,0.6,0.264,0.827,0.684,0.827
		s0.684-0.228,0.684-0.827V18.45c0-0.6-0.264-0.827-0.684-0.827s-0.684,0.228-0.684,0.827V22.984z"/>
	<path fill="#949494" d="M150.298,17.575c1.02,0,1.248-0.492,1.451-1.056h0.888v8.396h-1.319V18.51h-1.02V17.575z"/>
	<path fill="#949494" d="M155.422,22.204v0.78c0,0.6,0.264,0.815,0.684,0.815s0.684-0.216,0.684-0.815v-1.848
		c0-0.6-0.264-0.827-0.684-0.827s-0.684,0.228-0.684,0.827v0.252h-1.247l0.239-4.869h3.479v1.199h-2.303l-0.108,2.003h0.024
		c0.24-0.396,0.611-0.611,1.14-0.611c0.972,0,1.463,0.684,1.463,1.919V22.9c0,1.343-0.672,2.11-1.967,2.11s-1.967-0.768-1.967-2.11
		v-0.696H155.422z"/>
</g>
</svg>
